<svg id="Layer_1" data-name="Layer 1" xmlns="http://www.w3.org/2000/svg" viewBox="0 0 130 54.5"><defs><style>.cls-1{fill:#fff;}</style></defs><title>Section-Logos</title><path class="cls-1" d="M63.73.57h-8a.89.89,0,0,0-.92.9V34.83a1,1,0,0,0,.92.93h7.79c4.08-.15,8.44-3,8.61-7.2V7.77C71.92,3.28,68.33.89,63.73.57ZM66.27,12.9V26c.06,3.36-2.48,3.7-2.48,3.7-.95.2-2.75.7-3.19-.64V7.46c.44-1.34,2.24-.85,3.19-.64,0,0,2.54.34,2.48,3.69Z"/><path class="cls-1" d="M113.19,6.87c.27,0,2.66.28,2.9,11.06.08,3.6-.66,9.51-2.54,11.42a1.11,1.11,0,0,1-.89.42.86.86,0,0,1-.67-.33c-1.48-1.52-2.38-6.3-2.28-12.16v-.1C109.8,11.22,111.26,6.89,113.19,6.87Zm-9.86,10.3c-.09,5.62.54,13.07,4.1,16.72a7.89,7.89,0,0,0,5.49,2.25,6.79,6.79,0,0,0,5.17-2.31c4.4-4.46,4.41-14.14,4.37-16-.09-4.3-.39-17.39-9.33-17.3-6.08.06-9.65,6.11-9.79,16.6Z"/><path class="cls-1" d="M29.45,34.93a.84.84,0,0,1-.74.89H24.59a.94.94,0,0,1-.79-.89V10.41c.08-.26-.18-4-3-3.95a3.1,3.1,0,0,0-3.12,3s0,25.45,0,25.45a.85.85,0,0,1-.75.89H12.58a.94.94,0,0,1-.78-.89s0-25.41,0-25.45a3.1,3.1,0,0,0-3.12-3c-2.82,0-3.07,3.7-3,4V34.88a.84.84,0,0,1-.75.88H.79A.93.93,0,0,1,0,34.88L0,8C.4,4,2,1.27,5.69.38a8.36,8.36,0,0,1,9.05,2.84,8.37,8.37,0,0,1,9-2.84C27.49,1.27,29.08,4,29.47,8Z"/><path class="cls-1" d="M39.73,20.1V8.91a2.5,2.5,0,0,1,2.56-2.23A2.45,2.45,0,0,1,44,7.36a1.53,1.53,0,0,1,.53,1.13V20.1ZM50.35,8.43c0-2.17-.38-4.16-2-5.67A8.86,8.86,0,0,0,42.17.3a8.32,8.32,0,0,0-8.24,8.56V34.93a.94.94,0,0,0,.78.89H39a.85.85,0,0,0,.75-.89l0-10h4.79c0,3.43,0,10.05,0,10.05a.94.94,0,0,0,.79.89h4.32a.84.84,0,0,0,.74-.89Z"/><path class="cls-1" d="M82.39,1.49A.93.93,0,0,0,81.6.61H77.34a.84.84,0,0,0-.75.88V34.93a.94.94,0,0,0,.79.89h4.27a.85.85,0,0,0,.75-.89Z"/><path class="cls-1" d="M99.21,29.55a.84.84,0,0,1,.88.75v4.86c0,.36-.12.78-.56.78l-.22,0a13.43,13.43,0,0,1-9.88-5.18c-4.36-5.92-3.21-18.57-.93-23.18a12.84,12.84,0,0,1,10.65-7l0,0a.84.84,0,0,1,.88.75V6.16a.93.93,0,0,1-.88.79l0,0a6.35,6.35,0,0,0-4.94,3.45c-1.49,3-2.29,13,.35,16.57a6.5,6.5,0,0,0,4.59,2.58Z"/><path class="cls-1" d="M126.63.94a3.5,3.5,0,0,1,1.66.44,3.1,3.1,0,0,1,1.26,1.25A3.45,3.45,0,0,1,130,4.32,3.39,3.39,0,0,1,129.55,6a3,3,0,0,1-1.24,1.25,3.41,3.41,0,0,1-1.68.45A3.36,3.36,0,0,1,125,7.25,3.1,3.1,0,0,1,123.69,6a3.41,3.41,0,0,1,0-3.37A3.12,3.12,0,0,1,125,1.38,3.47,3.47,0,0,1,126.63.94Zm0,.56a2.92,2.92,0,0,0-1.39.37,2.57,2.57,0,0,0-1,1,2.82,2.82,0,0,0,0,2.81,2.57,2.57,0,0,0,1,1,2.81,2.81,0,0,0,1.4.38,2.86,2.86,0,0,0,1.4-.38,2.6,2.6,0,0,0,1-1,2.79,2.79,0,0,0,.37-1.4,2.87,2.87,0,0,0-.38-1.41,2.57,2.57,0,0,0-1.05-1A2.91,2.91,0,0,0,126.63,1.5Zm-1.49,4.69V2.56h1.25a3,3,0,0,1,.93.1.88.88,0,0,1,.46.35.93.93,0,0,1,.17.53.94.94,0,0,1-.29.69,1.09,1.09,0,0,1-.75.33,1,1,0,0,1,.31.2,4.17,4.17,0,0,1,.53.72l.45.71h-.72l-.32-.57a3.17,3.17,0,0,0-.61-.85.8.8,0,0,0-.47-.12h-.35V6.19Zm.59-2.05h.71a1.19,1.19,0,0,0,.7-.15.49.49,0,0,0,.18-.4.5.5,0,0,0-.09-.29.57.57,0,0,0-.24-.19,2,2,0,0,0-.59-.06h-.67Z"/><path class="cls-1" d="M18.9,46.24h-3v8H14.85v-8h-3v-1h7Z"/><path class="cls-1" d="M20,44.63h1v4.5h0a1.43,1.43,0,0,1,.28-.35,2.29,2.29,0,0,1,.42-.31,2.85,2.85,0,0,1,.56-.23,2.27,2.27,0,0,1,.65-.09,2.57,2.57,0,0,1,1,.18,1.83,1.83,0,0,1,.71.5,2,2,0,0,1,.41.77,3.43,3.43,0,0,1,.14,1v3.68h-1V50.69a1.93,1.93,0,0,0-.33-1.19,1.2,1.2,0,0,0-1-.43,2,2,0,0,0-.84.16,1.56,1.56,0,0,0-.57.48,2,2,0,0,0-.33.72,3.83,3.83,0,0,0-.11.93v2.91H20Z"/><path class="cls-1" d="M32.4,53.19a3.23,3.23,0,0,1-1.17,1,3.79,3.79,0,0,1-1.48.27,3,3,0,0,1-1.26-.25,2.72,2.72,0,0,1-.95-.67,2.92,2.92,0,0,1-.6-1,3.51,3.51,0,0,1-.21-1.22A3.3,3.3,0,0,1,27,50a2.81,2.81,0,0,1,.64-1,2.89,2.89,0,0,1,1-.64,3.32,3.32,0,0,1,1.23-.23,3,3,0,0,1,1.14.21,2.56,2.56,0,0,1,.9.61,2.74,2.74,0,0,1,.58,1,3.89,3.89,0,0,1,.21,1.32v.32H27.8a2.07,2.07,0,0,0,.6,1.35,1.94,1.94,0,0,0,.6.41,1.86,1.86,0,0,0,.75.15,2.25,2.25,0,0,0,1.09-.23,2.42,2.42,0,0,0,.81-.67Zm-.85-2.44a1.73,1.73,0,0,0-.5-1.22,1.78,1.78,0,0,0-1.3-.46,1.84,1.84,0,0,0-1.95,1.68Z"/><path class="cls-1" d="M44.2,47.11a2.61,2.61,0,0,0-1-.83A3,3,0,0,0,41.94,46a3,3,0,0,0-1.38.31,3.37,3.37,0,0,0-1.09.82,3.78,3.78,0,0,0-.71,1.2,4,4,0,0,0-.26,1.42,4.21,4.21,0,0,0,.26,1.47,3.51,3.51,0,0,0,.71,1.18,3.17,3.17,0,0,0,1.08.8,3.53,3.53,0,0,0,2.87,0,3.4,3.4,0,0,0,1.14-.94l.8.68a3.83,3.83,0,0,1-1.47,1.2,4.85,4.85,0,0,1-2,.38,4.52,4.52,0,0,1-1.8-.36,4.48,4.48,0,0,1-2.43-2.48,4.91,4.91,0,0,1-.35-1.9,5.12,5.12,0,0,1,.33-1.86,4.78,4.78,0,0,1,1-1.51,4.52,4.52,0,0,1,1.46-1A4.45,4.45,0,0,1,41.94,45a4.84,4.84,0,0,1,1.77.33,3.26,3.26,0,0,1,1.42,1.08Z"/><path class="cls-1" d="M46.76,44.63h1v9.64h-1Z"/><path class="cls-1" d="M55.06,53.19a3.23,3.23,0,0,1-1.17,1,3.79,3.79,0,0,1-1.48.27,3,3,0,0,1-1.26-.25,2.72,2.72,0,0,1-.95-.67,2.92,2.92,0,0,1-.6-1,3.51,3.51,0,0,1-.21-1.22A3.3,3.3,0,0,1,49.62,50a2.94,2.94,0,0,1,.63-1,3,3,0,0,1,1-.64,3.28,3.28,0,0,1,1.23-.23,3,3,0,0,1,1.14.21,2.56,2.56,0,0,1,.9.61,2.9,2.9,0,0,1,.58,1,3.89,3.89,0,0,1,.2,1.32v.32H50.46a2.11,2.11,0,0,0,.18.74,2.37,2.37,0,0,0,.42.61,1.94,1.94,0,0,0,.6.41,1.86,1.86,0,0,0,.75.15,2.25,2.25,0,0,0,1.09-.23,2.42,2.42,0,0,0,.81-.67Zm-.86-2.44a1.68,1.68,0,0,0-.49-1.22,1.78,1.78,0,0,0-1.3-.46,1.84,1.84,0,0,0-1.95,1.68Z"/><path class="cls-1" d="M56.74,49.07a2.8,2.8,0,0,1,1.09-.7,4.05,4.05,0,0,1,1.28-.22,2.51,2.51,0,0,1,1.91.63,2.67,2.67,0,0,1,.59,1.89v2.57c0,.17,0,.34,0,.53s0,.35.07.5h-1a2.14,2.14,0,0,1-.05-.45c0-.17,0-.32,0-.44h0a2.21,2.21,0,0,1-2,1,3.37,3.37,0,0,1-.86-.11,2.17,2.17,0,0,1-.7-.34,1.63,1.63,0,0,1-.48-.56,1.55,1.55,0,0,1-.18-.76,1.64,1.64,0,0,1,.39-1.16,2.25,2.25,0,0,1,.94-.62A4.41,4.41,0,0,1,59,50.61c.44,0,.84,0,1.2,0h.38v-.18a1.21,1.21,0,0,0-.38-1,1.65,1.65,0,0,0-1.09-.33,2.79,2.79,0,0,0-1,.16,2.14,2.14,0,0,0-.82.49Zm2.88,2.33a3.57,3.57,0,0,0-1.52.27.91.91,0,0,0-.56.88.85.85,0,0,0,.38.79,1.7,1.7,0,0,0,.94.24,1.76,1.76,0,0,0,.75-.15,1.45,1.45,0,0,0,.55-.39,1.84,1.84,0,0,0,.33-.56,2.28,2.28,0,0,0,.12-.7V51.4Z"/><path class="cls-1" d="M63.43,49.72c0-.27,0-.53,0-.77s0-.45,0-.65h.94c0,.17,0,.33,0,.49s0,.33,0,.5h0a1.91,1.91,0,0,1,.29-.43,2.29,2.29,0,0,1,.44-.36,2.46,2.46,0,0,1,.57-.25,2.26,2.26,0,0,1,.69-.1h.21l.2.06-.06,1a1.9,1.9,0,0,0-.54-.07,1.5,1.5,0,0,0-1.33.59,2.74,2.74,0,0,0-.41,1.62v2.91h-1Z"/><path class="cls-1" d="M78,47.11a2.61,2.61,0,0,0-1-.83A3,3,0,0,0,75.7,46a3,3,0,0,0-1.38.31,3.37,3.37,0,0,0-1.09.82,3.78,3.78,0,0,0-.71,1.2,4,4,0,0,0-.26,1.42,4.21,4.21,0,0,0,.26,1.47,3.66,3.66,0,0,0,.7,1.18,3.31,3.31,0,0,0,1.09.8,3.53,3.53,0,0,0,2.87,0,3.4,3.4,0,0,0,1.14-.94l.8.68a3.83,3.83,0,0,1-1.47,1.2,4.85,4.85,0,0,1-2,.38,4.47,4.47,0,0,1-4.23-2.84,4.91,4.91,0,0,1-.35-1.9,5.12,5.12,0,0,1,.33-1.86,4.78,4.78,0,0,1,1-1.51A4.57,4.57,0,0,1,75.7,45a4.84,4.84,0,0,1,1.77.33,3.26,3.26,0,0,1,1.42,1.08Z"/><path class="cls-1" d="M80.43,44.63h1v4.5h0a1.72,1.72,0,0,1,.28-.35,2.07,2.07,0,0,1,.43-.31,2.75,2.75,0,0,1,.55-.23,2.32,2.32,0,0,1,.65-.09,2.66,2.66,0,0,1,1,.18,1.79,1.79,0,0,1,.7.5,2,2,0,0,1,.42.77,3.44,3.44,0,0,1,.13,1v3.68h-1V50.69a1.93,1.93,0,0,0-.33-1.19,1.24,1.24,0,0,0-1-.43,1.92,1.92,0,0,0-.83.16,1.41,1.41,0,0,0-.57.48,2.18,2.18,0,0,0-.34.72,3.84,3.84,0,0,0-.1.93v2.91h-1Z"/><path class="cls-1" d="M87.17,51.29A3.11,3.11,0,0,1,87.42,50a3.07,3.07,0,0,1,.66-1,2.91,2.91,0,0,1,1-.64,3.62,3.62,0,0,1,2.54,0,3,3,0,0,1,1,.64,3.07,3.07,0,0,1,.66,1,3.38,3.38,0,0,1,0,2.55,3.07,3.07,0,0,1-.66,1,3,3,0,0,1-1,.64,3.62,3.62,0,0,1-2.54,0,2.91,2.91,0,0,1-1-.64,3.18,3.18,0,0,1-.91-2.26Zm1.07,0a2.49,2.49,0,0,0,.15.87,2,2,0,0,0,.43.7,1.89,1.89,0,0,0,.67.47,2.31,2.31,0,0,0,1.74,0,2,2,0,0,0,.67-.47,2,2,0,0,0,.43-.7,2.8,2.8,0,0,0,0-1.75,2.1,2.1,0,0,0-.43-.7,2.13,2.13,0,0,0-.67-.47,2.31,2.31,0,0,0-1.74,0,2,2,0,0,0-.67.47,2.1,2.1,0,0,0-.43.7A2.5,2.5,0,0,0,88.24,51.29Z"/><path class="cls-1" d="M95,46a.73.73,0,0,1,.21-.51.74.74,0,0,1,1,0,.73.73,0,0,1,.21.51.72.72,0,0,1-.2.52.71.71,0,0,1-.53.21.7.7,0,0,1-.52-.21A.68.68,0,0,1,95,46Zm.23,2.33h1v6h-1Z"/><path class="cls-1" d="M102.39,49.8a2,2,0,0,0-.69-.56,2,2,0,0,0-.81-.17,2.16,2.16,0,0,0-.88.17,1.7,1.7,0,0,0-.63.48,1.94,1.94,0,0,0-.38.71,2.93,2.93,0,0,0-.13.86,2.47,2.47,0,0,0,.15.86,2.23,2.23,0,0,0,.41.7,1.66,1.66,0,0,0,.63.48,1.84,1.84,0,0,0,.83.17,1.73,1.73,0,0,0,1.51-.74l.74.71a2.58,2.58,0,0,1-1,.72,3.4,3.4,0,0,1-1.23.23,3.5,3.5,0,0,1-1.27-.23,2.72,2.72,0,0,1-1-.65,3,3,0,0,1-.63-1A3.69,3.69,0,0,1,98,50a2.91,2.91,0,0,1,.64-1,2.72,2.72,0,0,1,1-.65,3.22,3.22,0,0,1,1.26-.24,3.47,3.47,0,0,1,1.25.23,2.72,2.72,0,0,1,1,.71Z"/><path class="cls-1" d="M109.62,53.19a3.17,3.17,0,0,1-1.18,1,3.72,3.72,0,0,1-1.48.27,3,3,0,0,1-1.26-.25,2.82,2.82,0,0,1-1-.67,3.09,3.09,0,0,1-.6-1,3.63,3.63,0,0,1,0-2.49,3.12,3.12,0,0,1,.64-1,2.93,2.93,0,0,1,1-.64,3.23,3.23,0,0,1,1.22-.23,3.06,3.06,0,0,1,1.15.21,2.56,2.56,0,0,1,.9.61,2.9,2.9,0,0,1,.58,1,4.16,4.16,0,0,1,.2,1.32v.32H105a2.13,2.13,0,0,0,.19.74,2.33,2.33,0,0,0,.41.61,1.94,1.94,0,0,0,.6.41,1.86,1.86,0,0,0,.75.15,2.23,2.23,0,0,0,1.9-.9Zm-.86-2.44a1.69,1.69,0,0,0-.5-1.22,1.75,1.75,0,0,0-1.3-.46,1.89,1.89,0,0,0-1.33.46,1.92,1.92,0,0,0-.62,1.22Z"/></svg>