<?xml version="1.0" encoding="utf-8"?>
<!-- Generator: Adobe Illustrator 23.0.3, SVG Export Plug-In . SVG Version: 6.00 Build 0)  -->
<svg version="1.1" id="Layer_1" xmlns="http://www.w3.org/2000/svg" xmlns:xlink="http://www.w3.org/1999/xlink" x="0px" y="0px"
	 viewBox="0 0 804.89 369.32" style="enable-background:new 0 0 804.89 369.32;" xml:space="preserve">
<style type="text/css">
	.st0{fill:url(#SVGID_1_);}
	.st1{fill:#00467F;}
	.st2{fill:#EA6C3B;}
</style>
<g>
	<radialGradient id="SVGID_1_" cx="664.5598" cy="185.1433" r="158.142" gradientUnits="userSpaceOnUse">
		<stop  offset="0" style="stop-color:#F4C064"/>
		<stop  offset="1" style="stop-color:#DC2646"/>
	</radialGradient>
	<path class="st0" d="M605.91,137.88c-4.82,0.51-9.46,1.64-13.83,3.29l-8.86-57.23L605.91,137.88z M665.92,216.77l131.87,28.45
		l-127.8-43.04l58.68-7.7l-58.7-7.74l69.52-26.71l-73.28,12.82l38.9-30.58l-45.89,18.28l58.57-64.68l-68.68,54.32l23.59-54.21
		l-36.53,46.5L667.14,5.51l-45.55,132.91l-7.7-45.34l-7.64,44.77c1.83-0.18,3.7-0.28,5.58-0.28c30.83,0,55.82,24.99,55.82,55.82
		c0,30.82-24.99,55.82-55.82,55.82c-17.5,0-33.11-8.05-43.34-20.65l-37.15,45.65l47.38-35.4l-16.67,43.68l29.58-35.97l-23.21,118.25
		l37.8-114.2l7.7,58.68l7.74-58.7l27.66,70.11l-13.77-73.87l35.14,47.42l-22.87-54.4l35.74,26.29l-25.35-36.41l78.38,38.59
		L665.92,216.77z M591.66,141.34l-58.22-88.32l45.94,94.96C583.15,145.28,587.27,143.04,591.66,141.34z M578.9,148.32l-44.7-36.37
		l34.43,46.09C571.63,154.38,575.08,151.11,578.9,148.32z"/>
	<g>
		<path class="st1" d="M151.35,130.25c0,1.03,0.4,2.03,1.13,2.8c0.75,0.8,1.76,1.24,2.85,1.25c1.08,0.01,2.1-0.41,2.86-1.19
			c2.58-2.62,3.51-5.3,2.75-7.94c-0.79-2.88-3.38-4.86-7.7-5.86c-15.09-3.46-57.09,3.9-72.65,22.63c-2.2,2.64-3.31,5.33-3.31,8.03
			c0,0.87,0.11,1.74,0.34,2.61c2.38,9,17.06,14.09,34.07,19.98c16.09,5.57,34.24,11.85,37.04,20.15c0.23,0.69,0.41,1.53,0.41,2.45
			c0,1.48-0.46,3.21-1.88,4.99c-15.22,19-56.15,25.17-86.93,21.33c-26.57-3.31-40.96-10.89-42.33-14.98
			c-0.08-0.22-0.24-0.66,0.75-1.7c1.54-1.63,1.52-4.24-0.04-5.83c-0.76-0.78-1.77-1.21-2.85-1.2c-1.08,0.01-2.09,0.45-2.85,1.24
			c-2.96,3.12-5.47,8.34-4.27,11.87c3.72,11.05,27.72,17.82,48.95,20.47c36.37,4.55,83.63-4.43,99.58-30.02
			c3.16-5.09,3.96-10.03,2.37-14.71c-3.73-11.08-20.31-16.72-37.85-22.7l-8.95-3.07c-10.8-3.7-23.04-7.89-24.15-12.12
			c-0.26-0.95,0.57-2.21,1.32-3.11c10.63-12.78,35.94-17.25,54.38-17.19c3.85,0.01,6.05,0.37,7.38,0.72
			c-0.09,0.34-0.4,0.59-0.4,0.96C151.35,130.17,151.35,130.2,151.35,130.25z"/>
		<path class="st1" d="M657.58,186.08c-12.51,11.64-59.1,43.03-78.49,24.84c-2.54-2.38-1.72-4.32-1.25-4.5
			c8.82-3.8,17.5-7.2,23.54-11.93c8.46-6.63,13.52-11.67,13.35-17.03c-0.04-1.31-0.33-2.56-0.91-3.75
			c-1.99-4.2-6.71-6.24-12.61-5.43c-13.44,1.84-34.31,17.36-35.4,30.85c-0.06,0.73-0.09,1.47-0.07,2.19
			c0.01,0.24,0.01,0.55,0.02,0.9l-0.24-0.77c-7.41,3.32-18.6,6.99-28.28,9.06c7.02-4.93,13.62-11.31,16.83-16.89
			c3.78-6.58,0.51-13.48-2.02-16.51c-1.48-1.79-3.43-2.8-5.78-3.01c-7.73-0.71-18.2,7.03-27.42,14.71c0,0,0.04,0.06,0.05,0.06
			c-1.43,1.07-3.81,3.35-5.65,5.37c0.37-1.4,0.76-3.04,0.92-4.32c0.34-2.83,0.65-6.4,0.65-10.09c0-7.45-1.24-15.44-5.92-19.12
			l-2.1-0.55c-0.77,0.13-1.44,0.58-1.89,1.27c-0.68,1.05-0.06,1.55,0.27,1.81l0.44,0.46c0.01,0.01,0.62,0.66,0.62,0.66
			c3.06,2.76,1,16.84,0.01,23.61l-0.11,0.77c-0.88,5.96-3.05,11.62-5.71,17.3c-10.08,7.85-25.41,12.98-20.25-7.26l1.45-3.75
			c0.47-1.19,0.09-2.42-0.86-3.09c-0.95-0.68-3.81-0.19-4.88,0.46c-9.42,5.7-27.46,21.5-31.27,17.9c-1.36-1.29-0.62-3.83,1.65-7.05
			c7.96-11.36,31.99-25.16,37.88-23.23c1.38,0.46,2.96-0.36,3.52-1.83c0.57-1.46-2.54-5.84-3.9-6.28
			c-7.04-2.31-24.14,6.76-35.63,16.56l-0.78,0.52c-17.96,11.97-48,32.01-59.84,22.67c0,0-0.9-0.55-0.9-0.55
			c-1.01-0.54-2.05-1.1-2.51-4.01c-1.48-9.42,15.51-21.36,21.87-24.65c6.84-3.55,13.34-4.69,16.57-4.27
			c0.02,1.67,1.18,3.1,2.77,3.27l1.63-0.57c1.12-0.92,1.93-2.74,2.04-3.91c0.25-2.5-0.69-4.72-2.64-6.25
			c-4.58-3.56-14.99-2.64-24.22,2.15c-14,7.26-22.42,15.35-25.16,24.12c-2.29,1.6-6.23,3.48-15.05,5.84
			c0.12-0.41,0.25-0.85,0.25-0.85c0.28-1.23,0.39-2.57,0.32-4.06c-0.04-0.76-0.11-1.55-0.24-2.39l-0.34-2.35
			c0,0-0.96-4.88-0.96-4.88c-0.73-3.29-1.53-7.01-1.71-10.7c0.43-0.46,7.24-7.69,7.24-7.69c0.24-0.3,1.52-3.44,1.52-3.44
			c0.15-0.67,0.21-1.28,0.18-1.83c-0.06-1.43-0.63-2.39-1.04-2.9c-1.03-1.28-2.67-1.78-5.04-1.51c-3.97,0.42-9.27,6.28-10.27,9.83
			c0,0.01-0.2,0.8-0.2,0.8c-0.51,2.25-1.31,6.31-1.22,9.98c-0.96,1.68-1.65,1.97-5.04,4.94c-14.93,13.05-28.67,25.93-38.43,25.9
			c-0.44-0.04-0.86-0.09-1.24-0.15c-0.72-0.12-1.48-0.7-1.73-1.18l-1.05-0.97l-0.49-1.86c-0.64-0.85-0.34-3.85-0.13-5.83
			c0.41-3.96,1.06-10.46-4.59-11.98c-2.24-0.61-4.32,1.06-8.87,4.73l-6.39,5.04c-4.1,3.12-8.13,6.12-10.35,6.82
			c0.22-2.4,1.68-11.58,3.29-16.81l7.64-18.94c0.01-0.04,0.01-0.08,0-0.12c0-1.01-0.7-1.78-2.09-2.54
			c-1.71-0.94-5.64-2.31-6.98-1.25c-11.18,23.64-32.04,44.16-39.63,44.15c-0.46-0.01-0.83,0-1.23,0c-5.27-0.52-7.25-4.94-2.69-22.59
			c2.23-1.09-1.59-4.43-1.97-5.47c-3.04-2.16-6.03-1.11-7.18,0.06c-1.39,1.48-33.01,32.18-41.16,28.59
			c-3.95-1.75-7.85-9.77,16.63-37.33c0-0.01,0.84-2.38,0.84-2.38c0.07-1.51-2.52-4.27-4.87-5.16c-1.97-0.74-3.82-0.33-5.07,1.12
			c-20.85,24.3-20.6,34.69-17.38,42.27c1.28,3.06,7.75,7.41,11.64,8.32c11.45,2.64,24.33-12.04,38.05-23.59
			c-6.77,30.01,13.89,22.85,25.38,14.62c6.33-3.96,9.82-8.63,15.35-13.84c0,0,1.82-1.71,3.37-3.17c-1.47,5.84-2.82,14.06-2.81,16.31
			l0.69,3.37c0.86,1.9,2.27,3.13,4.18,3.65c3.36,0.94,10.21-3.94,16.84-8.65c3.51-2.5,8.32-5.92,9.33-5.68
			c-0.12,0.01-0.22,2.13-0.22,2.13l-0.24,2.01c0.02,3.05,0.68,5.4,2.03,7.22c1.28,1.72,3.04,4.09,6.04,4.93
			c1.96,0.54,5.44,0.44,9.23-1.11c14.03-4.23,26.49-15.52,38.81-27.81l1.76-1.52c0,0,0.67-0.61,1.58-1.47
			c0.83,4.63,1.63,7.3,1.76,10.24c0.27,6.21-1.8,8.73-2.02,9.33c-1.71,0.49-18.38,5.71-20.42,11.87c0-0.01-0.15,0.51-0.15,0.51
			c-0.54,2.35,0.83,3.5,1.44,3.89c2.93,1.91,9.98,0.27,16.76-3.9l0.5-0.31c2.63-1.59,6.97-4.27,9.77-8.62
			c5.95-2.03,12.05-5.37,17.29-8.18c-0.06,0.43-0.13,0.86-0.16,1.29c-0.5,6.42,2.13,11.12,4.75,13.37
			c14.5,12.41,38.13-0.99,56.84-13.7c-1.73,5.84,1.41,11,2.72,12.63c7.33,9.1,22.82-4.52,33.06-11.96
			c-0.43,1.41-0.64,2.86-0.96,4.35c-3.11,14.24,12.1,12.67,24.75,6.23c-0.41,0.79-0.82,1.59-1.23,2.4l-5.82,11.81
			c-4.85,8.25-7.27,14.67-7.7,15.87v0.01c-0.4,1.13,2.71,4.89,2.86,5.02l1.68,1.44l1.82-1.38c0.45-0.35,1.06-1.63,2.93-5.63
			l5.43-11.27c-0.01,0.02,1.55-2.89,1.55-2.89c7.8-14.53,12.51-23.29,20.57-31.31c8.97-8.43,25.45-17.86,28.35-15.16
			c0.98,0.93,0.61,3.04-1.05,5.94c-6.39,11.1-26.57,23.49-31.2,21.91c0,0.01-2.21,0.17-2.21,0.17c-0.76,0.39-1.34,1.12-1.6,2
			c-0.51,1.78,2.85,6.24,4.36,6.75c2.1,0.71,4.99,0.34,8.24-0.77c11.58-1.16,31.91-6.64,41.91-11.75l0.81,4.01
			c2.05,3.29,3.04,5.55,5.82,6.93c33.71,16.69,83.97-21.66,86.75-27.6C660.42,187.06,659.27,184.51,657.58,186.08z M578.33,201.41
			c0.82-10.11,19.77-24.86,28.43-26.02c2.01-0.27,2.23,0.17,2.39,0.49c0.11,0.26,0.18,0.56,0.19,0.9c0.08,2.41-4.69,8.62-11.5,13.97
			c-5.45,4.28-12.4,8.18-19.54,11.38C578.3,201.89,578.3,201.65,578.33,201.41z M359.7,168.41l0.16-0.61
			c0.58-2.07,1.65-3.49,2.89-3.8c0.52-0.14,0.97-0.03,1.22,0.28c0.17,0.22,0.23,0.48,0.25,0.77c0.01,0.27-0.03,0.55-0.08,0.79
			c0,0-0.9,2.02-0.9,2.02c-0.01,0.01-1.16,1.33-1.16,1.33c-0.85,0.98-1.89,2.13-2.76,2.99C359.48,170.59,359.7,168.41,359.7,168.41z
			 M344.67,215.23c-5.51,3.38-8.97,3.66-10.35,2.88c0.3-0.73,0.96-2.62,13.97-6.61C346.53,213.49,346.04,214.39,344.67,215.23z"/>
	</g>
	<g>
		<path class="st2" d="M699.87,261.23c0,3.14-2.53,5.63-5.73,5.63c-3.21,0-5.77-2.49-5.77-5.63c0-3.14,2.56-5.6,5.8-5.6
			C697.34,255.64,699.87,258.09,699.87,261.23z M689.8,261.23c0,2.49,1.88,4.47,4.37,4.47c2.42,0.03,4.27-1.98,4.27-4.44
			c0-2.49-1.84-4.51-4.34-4.51C691.68,256.76,689.8,258.78,689.8,261.23z M693.25,264.14h-1.3v-5.6c0.51-0.07,1.23-0.17,2.15-0.17
			c1.06,0,1.54,0.17,1.91,0.44c0.34,0.24,0.58,0.65,0.58,1.19c0,0.68-0.51,1.13-1.16,1.33v0.07c0.55,0.17,0.82,0.61,0.99,1.36
			c0.17,0.85,0.31,1.16,0.41,1.37h-1.36c-0.17-0.2-0.27-0.68-0.44-1.37c-0.1-0.58-0.44-0.85-1.16-0.85h-0.61V264.14z M693.28,261
			h0.61c0.72,0,1.3-0.24,1.3-0.82c0-0.51-0.38-0.85-1.19-0.85c-0.34,0-0.58,0.03-0.72,0.07V261z"/>
	</g>
	<g>
		<path class="st1" d="M146.54,247.19h8.98c1.22,0,2.41,0.12,3.57,0.37c1.16,0.25,2.2,0.66,3.12,1.23c0.91,0.57,1.66,1.31,2.22,2.22
			c0.57,0.92,0.85,2.05,0.85,3.41c0,1.72-0.46,3.14-1.39,4.26c-0.93,1.12-2.18,1.92-3.76,2.39v0.08c0.94,0.08,1.82,0.33,2.64,0.73
			c0.82,0.4,1.52,0.92,2.12,1.56c0.6,0.64,1.06,1.38,1.39,2.22c0.33,0.85,0.5,1.75,0.5,2.72c0,1.63-0.34,2.98-1.02,4.03
			c-0.68,1.05-1.57,1.89-2.66,2.51c-1.09,0.62-2.33,1.06-3.7,1.31c-1.37,0.25-2.74,0.37-4.09,0.37h-8.77V247.19z M150.03,259.66
			h4.82c0.83,0,1.64-0.06,2.43-0.17c0.79-0.11,1.5-0.34,2.14-0.69c0.64-0.35,1.15-0.83,1.54-1.45c0.39-0.62,0.58-1.45,0.58-2.47
			c0-0.91-0.18-1.66-0.54-2.22c-0.36-0.57-0.84-1.02-1.43-1.35c-0.6-0.33-1.27-0.56-2.04-0.69c-0.76-0.12-1.53-0.19-2.31-0.19h-5.2
			V259.66z M150.03,273.38h5.9c0.86,0,1.71-0.09,2.56-0.27c0.84-0.18,1.61-0.47,2.29-0.87c0.68-0.4,1.23-0.93,1.64-1.58
			c0.42-0.65,0.62-1.45,0.62-2.39c0-1.02-0.2-1.88-0.6-2.58c-0.4-0.69-0.93-1.25-1.58-1.66c-0.65-0.42-1.4-0.71-2.25-0.87
			c-0.84-0.17-1.71-0.25-2.6-0.25h-5.98V273.38z"/>
		<path class="st1" d="M182.57,263.94l-10.97-16.75h4.45l8.27,13.3l8.52-13.3h4.2l-10.97,16.75v12.68h-3.49V263.94z"/>
		<path class="st1" d="M217.69,247.19h5.2l9.97,23.07h0.08L243,247.19h5.07v29.43h-3.49v-24.69h-0.08l-10.56,24.69h-2.12
			l-10.56-24.69h-0.08v24.69h-3.49V247.19z"/>
		<path class="st1" d="M267.86,247.19h3.28l12.51,29.43h-4.07l-2.99-7.23h-14.71l-3.03,7.23h-3.95L267.86,247.19z M269.44,251.68
			h-0.08l-6.11,14.46h12.01L269.44,251.68z"/>
		<path class="st1" d="M289.93,247.19h11.31c0.97,0,2,0.11,3.08,0.33c1.08,0.22,2.15,0.58,3.22,1.06c1.07,0.49,2.09,1.12,3.08,1.89
			c0.98,0.78,1.85,1.71,2.6,2.81c0.75,1.09,1.34,2.36,1.79,3.78c0.44,1.43,0.67,3.04,0.67,4.84c0,1.8-0.22,3.42-0.67,4.84
			c-0.44,1.43-1.04,2.69-1.79,3.78c-0.75,1.09-1.61,2.03-2.6,2.81s-2.01,1.41-3.08,1.89c-1.07,0.49-2.14,0.84-3.22,1.06
			c-1.08,0.22-2.11,0.33-3.08,0.33h-11.31V247.19z M293.42,273.38h6.65c1.69,0,3.26-0.22,4.7-0.67c1.44-0.44,2.69-1.13,3.74-2.06
			c1.05-0.93,1.88-2.11,2.49-3.55c0.61-1.44,0.91-3.17,0.91-5.2c0-2.02-0.3-3.75-0.91-5.2c-0.61-1.44-1.44-2.63-2.49-3.55
			c-1.05-0.93-2.3-1.61-3.74-2.06c-1.44-0.44-3.01-0.67-4.7-0.67h-6.65V273.38z"/>
		<path class="st1" d="M324.18,247.19h3.49v29.43h-3.49V247.19z"/>
		<path class="st1" d="M358.51,253.26c-0.89-1.19-1.98-2.08-3.28-2.68c-1.3-0.6-2.66-0.89-4.07-0.89c-1.63,0-3.14,0.33-4.51,1
			c-1.37,0.67-2.56,1.56-3.55,2.68c-1,1.12-1.77,2.42-2.33,3.91c-0.55,1.48-0.83,3.03-0.83,4.63c0,1.72,0.28,3.32,0.83,4.8
			c0.55,1.48,1.32,2.77,2.31,3.87c0.98,1.1,2.16,1.96,3.53,2.6c1.37,0.64,2.89,0.96,4.55,0.96c1.8,0,3.41-0.35,4.82-1.06
			s2.65-1.72,3.7-3.05l2.62,2.2c-1.33,1.77-2.93,3.08-4.8,3.91s-3.98,1.25-6.34,1.25c-2.11,0-4.07-0.39-5.9-1.16
			c-1.83-0.78-3.42-1.85-4.76-3.22c-1.34-1.37-2.4-3-3.16-4.88c-0.76-1.88-1.14-3.95-1.14-6.19c0-2.16,0.37-4.18,1.1-6.07
			c0.73-1.88,1.77-3.52,3.1-4.9c1.33-1.38,2.91-2.48,4.74-3.28s3.84-1.21,6.03-1.21c2,0,3.91,0.36,5.76,1.08
			c1.84,0.72,3.39,1.9,4.63,3.53L358.51,253.26z"/>
		<path class="st1" d="M383.74,277.37c-2.24,0-4.3-0.39-6.17-1.16c-1.87-0.78-3.49-1.85-4.86-3.22c-1.37-1.37-2.44-3.01-3.2-4.9
			c-0.76-1.9-1.14-3.96-1.14-6.17c0-2.22,0.38-4.27,1.14-6.17c0.76-1.9,1.83-3.53,3.2-4.9c1.37-1.37,2.99-2.45,4.86-3.22
			c1.87-0.78,3.93-1.16,6.17-1.16s4.3,0.39,6.17,1.16c1.87,0.78,3.49,1.85,4.86,3.22c1.37,1.37,2.44,3.01,3.2,4.9
			c0.76,1.9,1.14,3.96,1.14,6.17c0,2.22-0.38,4.27-1.14,6.17c-0.76,1.9-1.83,3.53-3.2,4.9c-1.37,1.37-2.99,2.45-4.86,3.22
			C388.04,276.98,385.98,277.37,383.74,277.37z M383.74,274.13c1.72,0,3.29-0.32,4.72-0.96c1.43-0.64,2.65-1.51,3.68-2.62
			c1.03-1.11,1.82-2.4,2.39-3.89c0.57-1.48,0.85-3.07,0.85-4.76c0-1.69-0.28-3.28-0.85-4.76c-0.57-1.48-1.37-2.78-2.39-3.89
			s-2.25-1.98-3.68-2.62c-1.43-0.64-3-0.96-4.72-0.96c-1.72,0-3.29,0.32-4.72,0.96c-1.43,0.64-2.65,1.51-3.68,2.62
			c-1.03,1.11-1.82,2.4-2.39,3.89c-0.57,1.48-0.85,3.07-0.85,4.76c0,1.69,0.28,3.28,0.85,4.76c0.57,1.48,1.37,2.78,2.39,3.89
			c1.02,1.11,2.25,1.98,3.68,2.62C380.45,273.81,382.02,274.13,383.74,274.13z"/>
	</g>
</g>
</svg>
